<svg width="1050" height="600" xmlns="http://www.w3.org/2000/svg"><g fill="#FFF" fill-rule="nonzero"><path d="M7.2 18.7v-4.5h4.46V13H7.2V8.5H5.9V13H1.46v1.2H5.9v4.5h1.3zm195.12-4.52V13h-7.78v1.18h7.78zM360.2 18.7v-4.5h4.46V13h-4.46V8.5h-1.3V13h-4.44v1.2h4.44v4.5h1.3zm195.12-4.52V13h-7.78v1.18h7.78zM7.2 98.7v-4.5h4.46V93H7.2v-4.5H5.9V93H1.46v1.2H5.9v4.5h1.3zm195.12-4.52V93h-7.78v1.18h7.78zM360.2 98.7v-4.5h4.46V93h-4.46v-4.5h-1.3V93h-4.44v1.2h4.44v4.5h1.3zm195.12-4.52V93h-7.78v1.18h7.78zM701.2 98.7v-4.5h4.46V93h-4.46v-4.5h-1.3V93h-4.44v1.2h4.44v4.5h1.3zm195.12-4.52V93h-7.78v1.18h7.78zM7.2 167.7v-4.5h4.46V162H7.2v-4.5H5.9v4.5H1.46v1.2H5.9v4.5h1.3zm195.12-4.52V162h-7.78v1.18h7.78zM360.2 167.7v-4.5h4.46V162h-4.46v-4.5h-1.3v4.5h-4.44v1.2h4.44v4.5h1.3zm195.12-4.52V162h-7.78v1.18h7.78zM701.2 167.7v-4.5h4.46V162h-4.46v-4.5h-1.3v4.5h-4.44v1.2h4.44v4.5h1.3zm195.12-4.52V162h-7.78v1.18h7.78zM7.2 229.7v-4.5h4.46V224H7.2v-4.5H5.9v4.5H1.46v1.2H5.9v4.5h1.3zm195.12-4.52V224h-7.78v1.18h7.78z" opacity=".109"/><path d="M360.2 229.7v-4.5h4.46V224h-4.46v-4.5h-1.3v4.5h-4.44v1.2h4.44v4.5h1.3zm195.12-4.52V224h-7.78v1.18h7.78z" opacity=".269"/><path d="M701.2 229.7v-4.5h4.46V224h-4.46v-4.5h-1.3v4.5h-4.44v1.2h4.44v4.5h1.3zm195.12-4.52V224h-7.78v1.18h7.78zM7.2 309.7v-4.5h4.46V304H7.2v-4.5H5.9v4.5H1.46v1.2H5.9v4.5h1.3zm195.12-4.52V304h-7.78v1.18h7.78zM360.2 309.7v-4.5h4.46V304h-4.46v-4.5h-1.3v4.5h-4.44v1.2h4.44v4.5h1.3zm195.12-4.52V304h-7.78v1.18h7.78zM701.2 309.7v-4.5h4.46V304h-4.46v-4.5h-1.3v4.5h-4.44v1.2h4.44v4.5h1.3zm195.12-4.52V304h-7.78v1.18h7.78zM7.2 378.7v-4.5h4.46V373H7.2v-4.5H5.9v4.5H1.46v1.2H5.9v4.5h1.3zm195.12-4.52V373h-7.78v1.18h7.78z" opacity=".109"/><path d="M360.2 378.7v-4.5h4.46V373h-4.46v-4.5h-1.3v4.5h-4.44v1.2h4.44v4.5h1.3zm195.12-4.52V373h-7.78v1.18h7.78z" opacity=".297"/><path d="M701.2 378.7v-4.5h4.46V373h-4.46v-4.5h-1.3v4.5h-4.44v1.2h4.44v4.5h1.3zm195.12-4.52V373h-7.78v1.18h7.78zM7.2 440.7v-4.5h4.46V435H7.2v-4.5H5.9v4.5H1.46v1.2H5.9v4.5h1.3zm195.12-4.52V435h-7.78v1.18h7.78z" opacity=".109"/><path d="M360.2 440.7v-4.5h4.46V435h-4.46v-4.5h-1.3v4.5h-4.44v1.2h4.44v4.5h1.3zm195.12-4.52V435h-7.78v1.18h7.78z" opacity=".041"/><path d="M701.2 440.7v-4.5h4.46V435h-4.46v-4.5h-1.3v4.5h-4.44v1.2h4.44v4.5h1.3zm195.12-4.52V435h-7.78v1.18h7.78zM7.2 520.7v-4.5h4.46V515H7.2v-4.5H5.9v4.5H1.46v1.2H5.9v4.5h1.3zm195.12-4.52V515h-7.78v1.18h7.78z" opacity=".109"/><path d="M360.2 520.7v-4.5h4.46V515h-4.46v-4.5h-1.3v4.5h-4.44v1.2h4.44v4.5h1.3zm195.12-4.52V515h-7.78v1.18h7.78z" opacity=".028"/><path d="M701.2 520.7v-4.5h4.46V515h-4.46v-4.5h-1.3v4.5h-4.44v1.2h4.44v4.5h1.3zm195.12-4.52V515h-7.78v1.18h7.78zM7.2 589.7v-4.5h4.46V584H7.2v-4.5H5.9v4.5H1.46v1.2H5.9v4.5h1.3zm195.12-4.52V584h-7.78v1.18h7.78z" opacity=".109"/><path d="M360.2 589.7v-4.5h4.46V584h-4.46v-4.5h-1.3v4.5h-4.44v1.2h4.44v4.5h1.3zm195.12-4.52V584h-7.78v1.18h7.78z" opacity=".061"/><path d="M701.2 589.7v-4.5h4.46V584h-4.46v-4.5h-1.3v4.5h-4.44v1.2h4.44v4.5h1.3zm195.12-4.52V584h-7.78v1.18h7.78z" opacity=".109"/></g></svg>